<svg id="calendar" xmlns="http://www.w3.org/2000/svg" width="13.315" height="17.272" viewBox="0 0 13.315 17.272">
  <g id="Group_2" data-name="Group 2">
    <g id="Group_1" data-name="Group 1">
      <ellipse id="Ellipse_1" data-name="Ellipse 1" cx="0.757" cy="0.757" rx="0.757" ry="0.757" transform="translate(9.154 6.35)" fill="#fff"/>
      <path id="Path_15" data-name="Path 15" d="M11.234,1.349h-.676V.675A.613.613,0,0,0,10.038,0a.613.613,0,0,0-.52.675v.675H7.152V.675A.613.613,0,0,0,6.631,0a.613.613,0,0,0-.52.675v.675H3.771V.675A.613.613,0,0,0,3.251,0a.613.613,0,0,0-.52.675v.675H2.08C.933,1.349,0,2.56,0,4.048V14.573c0,1.488.933,2.7,2.08,2.7H6.059a.7.7,0,0,0,0-1.349H2.08a1.227,1.227,0,0,1-1.04-1.349V4.048A1.227,1.227,0,0,1,2.08,2.7h.65v.675a.613.613,0,0,0,.52.675.613.613,0,0,0,.52-.675V2.7h2.34v.675a.613.613,0,0,0,.52.675.613.613,0,0,0,.52-.675V2.7H9.518v.675a.613.613,0,0,0,.52.675.613.613,0,0,0,.52-.675V2.7h.676a1.227,1.227,0,0,1,1.04,1.349V7.894a.613.613,0,0,0,.52.675.613.613,0,0,0,.52-.675V4.048C13.315,2.56,12.382,1.349,11.234,1.349Z" fill="#fff"/>
      <path id="Path_16" data-name="Path 16" d="M274.63,270a4.63,4.63,0,1,0,4.63,4.63A4.635,4.635,0,0,0,274.63,270Zm0,7.729a3.1,3.1,0,1,1,3.1-3.1A3.1,3.1,0,0,1,274.63,277.729Z" transform="translate(-265.945 -261.987)" fill="#fff"/>
      <path id="Path_17" data-name="Path 17" d="M372.875,331.569h-.344v-.8a.765.765,0,1,0-1.53,0v1.569a.765.765,0,0,0,.765.765h1.11a.765.765,0,0,0,0-1.53Z" transform="translate(-363.08 -319.148)" fill="#fff"/>
      <ellipse id="Ellipse_2" data-name="Ellipse 2" cx="0.757" cy="0.757" rx="0.757" ry="0.757" transform="translate(6.979 6.35)" fill="#fff"/>
      <ellipse id="Ellipse_3" data-name="Ellipse 3" cx="0.757" cy="0.757" rx="0.757" ry="0.757" transform="translate(4.804 9.234)" fill="#fff"/>
      <ellipse id="Ellipse_4" data-name="Ellipse 4" cx="0.78" cy="0.757" rx="0.78" ry="0.757" transform="translate(2.629 6.35)" fill="#fff"/>
      <ellipse id="Ellipse_5" data-name="Ellipse 5" cx="0.78" cy="0.757" rx="0.78" ry="0.757" transform="translate(2.629 9.234)" fill="#fff"/>
      <ellipse id="Ellipse_6" data-name="Ellipse 6" cx="0.78" cy="0.757" rx="0.78" ry="0.757" transform="translate(2.629 12.166)" fill="#fff"/>
      <ellipse id="Ellipse_7" data-name="Ellipse 7" cx="0.757" cy="0.757" rx="0.757" ry="0.757" transform="translate(4.804 12.166)" fill="#fff"/>
      <ellipse id="Ellipse_8" data-name="Ellipse 8" cx="0.757" cy="0.757" rx="0.757" ry="0.757" transform="translate(4.804 6.35)" fill="#fff"/>
    </g>
  </g>
</svg>
