<svg xmlns="http://www.w3.org/2000/svg" width="16.513" height="13.573" viewBox="0 0 16.513 13.573">
  <g id="menu" transform="translate(0 -1)">
    <path id="Path_8" data-name="Path 8" d="M15.825,124.624H.688c-.38,0-.688-.438-.688-.978s.308-.978.688-.978H15.825c.38,0,.688.438.688.978S16.2,124.624,15.825,124.624Zm0,0" transform="translate(0 -115.632)" fill="#07499f"/>
    <path id="Path_9" data-name="Path 9" d="M15.825,1.75H.688A.8.8,0,0,1,0,.875.8.8,0,0,1,.688,0H15.825a.8.8,0,0,1,.688.875A.8.8,0,0,1,15.825,1.75Zm0,0" transform="translate(0 1)" fill="#07499f"/>
    <path id="Path_10" data-name="Path 10" d="M15.825,247.111H.688a.919.919,0,0,1,0-1.779H15.825a.919.919,0,0,1,0,1.779Zm0,0" transform="translate(0 -232.538)" fill="#07499f"/>
  </g>
</svg>
