<svg xmlns="http://www.w3.org/2000/svg" width="19.261" height="21.915" viewBox="0 0 19.261 21.915">
  <g id="notification" transform="translate(-30.999)">
    <path id="Path_2" data-name="Path 2" d="M47.264,11.251V9.2a6.646,6.646,0,0,0-4.708-6.349V1.926a1.926,1.926,0,0,0-3.852,0v.928A6.646,6.646,0,0,0,34,9.2v2.049a10.081,10.081,0,0,1-2.818,7.009.642.642,0,0,0,.463,1.086h5.843a3.21,3.21,0,0,0,6.291,0h5.843a.642.642,0,0,0,.463-1.086A10.081,10.081,0,0,1,47.264,11.251ZM39.987,1.926a.642.642,0,0,1,1.284,0V2.6c-.211-.02-.425-.031-.642-.031s-.431.011-.642.031Zm.642,18.7a1.929,1.929,0,0,1-1.816-1.284h3.631A1.929,1.929,0,0,1,40.629,20.631Zm-7.6-2.568a11.352,11.352,0,0,0,2.254-6.811V9.2a5.35,5.35,0,0,1,10.7,0v2.049a11.351,11.351,0,0,0,2.254,6.811Z" fill="#07499f"/>
    <path id="Path_3" data-name="Path 3" d="M392.125,58.5a.642.642,0,1,0,1.284,0,9.567,9.567,0,0,0-2.821-6.81.642.642,0,0,0-.908.908,8.292,8.292,0,0,1,2.445,5.9Z" transform="translate(-343.149 -49.302)" fill="#07499f"/>
    <path id="Path_4" data-name="Path 4" d="M31.642,59.147a.642.642,0,0,0,.642-.642,8.292,8.292,0,0,1,2.445-5.9.642.642,0,0,0-.908-.908A9.567,9.567,0,0,0,31,58.505.642.642,0,0,0,31.642,59.147Z" transform="translate(-0.001 -49.303)" fill="#07499f"/>
  </g>
</svg>
