<svg xmlns="http://www.w3.org/2000/svg" width="19.261" height="21.915" viewBox="0 0 19.261 21.915">
  <path id="search" d="M20.139,21.214l-5.612-6.394c1.431-1.573,3.509-3.741,3.509-6.132C18.036,3.9,13.287,0,8.914,0S.983,3.9.983,8.689s3.558,8.689,7.931,8.689a7.491,7.491,0,0,0,5.055-2l5.625,6.409a.355.355,0,0,0,.534.012A.443.443,0,0,0,20.139,21.214ZM8.914,16.55c-3.957,0-7.176-3.526-7.176-7.861S4.957.827,8.914.827,16.09,4.354,16.09,8.689,12.871,16.55,8.914,16.55Z" transform="translate(-0.983)" fill="#07499f"/>
</svg>
